<mxfile host="app.diagrams.net" agent="Mozilla/5.0 (Windows NT 10.0; Win64; x64) AppleWebKit/537.36 (KHTML, like Gecko) Chrome/131.0.0.0 Safari/537.36" version="24.8.6">
  <diagram name="第 1 页" id="3ohDBbnFXbYUNgIgeW92">
    <mxGraphModel dx="3172" dy="964" grid="1" gridSize="10" guides="1" tooltips="1" connect="1" arrows="1" fold="1" page="1" pageScale="1" pageWidth="827" pageHeight="1169" math="0" shadow="0">
      <root>
        <mxCell id="0" />
        <mxCell id="1" parent="0" />
        <mxCell id="rcTg-8w3tk0E2nQA5H5g-80" value="" style="rounded=0;whiteSpace=wrap;html=1;" vertex="1" parent="1">
          <mxGeometry x="510" y="630" width="370" height="340" as="geometry" />
        </mxCell>
        <mxCell id="rcTg-8w3tk0E2nQA5H5g-22" value="" style="rounded=0;whiteSpace=wrap;html=1;" vertex="1" parent="1">
          <mxGeometry x="490" y="100" width="370" height="340" as="geometry" />
        </mxCell>
        <mxCell id="rcTg-8w3tk0E2nQA5H5g-67" value="" style="ellipse;whiteSpace=wrap;html=1;aspect=fixed;" vertex="1" parent="1">
          <mxGeometry x="670" y="265" width="10" height="10" as="geometry" />
        </mxCell>
        <mxCell id="rcTg-8w3tk0E2nQA5H5g-21" value="" style="rounded=0;whiteSpace=wrap;html=1;" vertex="1" parent="1">
          <mxGeometry x="-30" y="90" width="350" height="350" as="geometry" />
        </mxCell>
        <mxCell id="rcTg-8w3tk0E2nQA5H5g-31" value="" style="rounded=0;whiteSpace=wrap;html=1;" vertex="1" parent="1">
          <mxGeometry x="150" y="130" width="120" height="160" as="geometry" />
        </mxCell>
        <mxCell id="rcTg-8w3tk0E2nQA5H5g-1" value="" style="endArrow=none;html=1;rounded=0;entryX=0.4;entryY=0.9;entryDx=0;entryDy=0;entryPerimeter=0;" edge="1" parent="1" source="rcTg-8w3tk0E2nQA5H5g-4" target="rcTg-8w3tk0E2nQA5H5g-3">
          <mxGeometry width="50" height="50" relative="1" as="geometry">
            <mxPoint x="150" y="270" as="sourcePoint" />
            <mxPoint x="160" y="160" as="targetPoint" />
          </mxGeometry>
        </mxCell>
        <mxCell id="rcTg-8w3tk0E2nQA5H5g-2" value="" style="endArrow=none;html=1;rounded=0;exitX=0.86;exitY=0.9;exitDx=0;exitDy=0;exitPerimeter=0;" edge="1" parent="1" source="rcTg-8w3tk0E2nQA5H5g-5" target="rcTg-8w3tk0E2nQA5H5g-3">
          <mxGeometry width="50" height="50" relative="1" as="geometry">
            <mxPoint x="390" y="300" as="sourcePoint" />
            <mxPoint x="200" y="130" as="targetPoint" />
          </mxGeometry>
        </mxCell>
        <mxCell id="rcTg-8w3tk0E2nQA5H5g-3" value="" style="shape=waypoint;sketch=0;fillStyle=solid;size=6;pointerEvents=1;points=[];fillColor=none;resizable=0;rotatable=0;perimeter=centerPerimeter;snapToPoint=1;" vertex="1" parent="1">
          <mxGeometry x="190" y="120" width="20" height="20" as="geometry" />
        </mxCell>
        <mxCell id="rcTg-8w3tk0E2nQA5H5g-4" value="" style="shape=waypoint;sketch=0;fillStyle=solid;size=6;pointerEvents=1;points=[];fillColor=none;resizable=0;rotatable=0;perimeter=centerPerimeter;snapToPoint=1;" vertex="1" parent="1">
          <mxGeometry x="160" y="280" width="20" height="20" as="geometry" />
        </mxCell>
        <mxCell id="rcTg-8w3tk0E2nQA5H5g-5" value="" style="shape=waypoint;sketch=0;fillStyle=solid;size=6;pointerEvents=1;points=[];fillColor=none;resizable=0;rotatable=0;perimeter=centerPerimeter;snapToPoint=1;" vertex="1" parent="1">
          <mxGeometry x="140" y="220" width="20" height="20" as="geometry" />
        </mxCell>
        <mxCell id="rcTg-8w3tk0E2nQA5H5g-6" value="" style="shape=waypoint;sketch=0;fillStyle=solid;size=6;pointerEvents=1;points=[];fillColor=none;resizable=0;rotatable=0;perimeter=centerPerimeter;snapToPoint=1;" vertex="1" parent="1">
          <mxGeometry x="260" y="220" width="20" height="20" as="geometry" />
        </mxCell>
        <mxCell id="rcTg-8w3tk0E2nQA5H5g-7" value="" style="endArrow=none;html=1;rounded=0;exitX=0.42;exitY=0.82;exitDx=0;exitDy=0;exitPerimeter=0;" edge="1" parent="1" source="rcTg-8w3tk0E2nQA5H5g-5" target="rcTg-8w3tk0E2nQA5H5g-6">
          <mxGeometry width="50" height="50" relative="1" as="geometry">
            <mxPoint x="390" y="300" as="sourcePoint" />
            <mxPoint x="440" y="250" as="targetPoint" />
          </mxGeometry>
        </mxCell>
        <mxCell id="rcTg-8w3tk0E2nQA5H5g-8" value="" style="shape=flexArrow;endArrow=classic;html=1;rounded=0;" edge="1" parent="1">
          <mxGeometry width="50" height="50" relative="1" as="geometry">
            <mxPoint x="350" y="230" as="sourcePoint" />
            <mxPoint x="460" y="229.5" as="targetPoint" />
          </mxGeometry>
        </mxCell>
        <mxCell id="rcTg-8w3tk0E2nQA5H5g-32" value="" style="rounded=0;whiteSpace=wrap;html=1;" vertex="1" parent="1">
          <mxGeometry x="440" y="40" width="120" height="160" as="geometry" />
        </mxCell>
        <mxCell id="rcTg-8w3tk0E2nQA5H5g-33" value="" style="endArrow=none;html=1;rounded=0;entryX=0.4;entryY=0.9;entryDx=0;entryDy=0;entryPerimeter=0;" edge="1" parent="1" source="rcTg-8w3tk0E2nQA5H5g-36" target="rcTg-8w3tk0E2nQA5H5g-35">
          <mxGeometry width="50" height="50" relative="1" as="geometry">
            <mxPoint x="440" y="180" as="sourcePoint" />
            <mxPoint x="450" y="70" as="targetPoint" />
          </mxGeometry>
        </mxCell>
        <mxCell id="rcTg-8w3tk0E2nQA5H5g-34" value="" style="endArrow=none;html=1;rounded=0;exitX=0.86;exitY=0.9;exitDx=0;exitDy=0;exitPerimeter=0;" edge="1" parent="1" source="rcTg-8w3tk0E2nQA5H5g-37" target="rcTg-8w3tk0E2nQA5H5g-35">
          <mxGeometry width="50" height="50" relative="1" as="geometry">
            <mxPoint x="680" y="210" as="sourcePoint" />
            <mxPoint x="490" y="40" as="targetPoint" />
          </mxGeometry>
        </mxCell>
        <mxCell id="rcTg-8w3tk0E2nQA5H5g-35" value="" style="shape=waypoint;sketch=0;fillStyle=solid;size=6;pointerEvents=1;points=[];fillColor=none;resizable=0;rotatable=0;perimeter=centerPerimeter;snapToPoint=1;" vertex="1" parent="1">
          <mxGeometry x="480" y="30" width="20" height="20" as="geometry" />
        </mxCell>
        <mxCell id="rcTg-8w3tk0E2nQA5H5g-36" value="" style="shape=waypoint;sketch=0;fillStyle=solid;size=6;pointerEvents=1;points=[];fillColor=none;resizable=0;rotatable=0;perimeter=centerPerimeter;snapToPoint=1;" vertex="1" parent="1">
          <mxGeometry x="450" y="190" width="20" height="20" as="geometry" />
        </mxCell>
        <mxCell id="rcTg-8w3tk0E2nQA5H5g-37" value="" style="shape=waypoint;sketch=0;fillStyle=solid;size=6;pointerEvents=1;points=[];fillColor=none;resizable=0;rotatable=0;perimeter=centerPerimeter;snapToPoint=1;" vertex="1" parent="1">
          <mxGeometry x="430" y="130" width="20" height="20" as="geometry" />
        </mxCell>
        <mxCell id="rcTg-8w3tk0E2nQA5H5g-38" value="" style="shape=waypoint;sketch=0;fillStyle=solid;size=6;pointerEvents=1;points=[];fillColor=none;resizable=0;rotatable=0;perimeter=centerPerimeter;snapToPoint=1;" vertex="1" parent="1">
          <mxGeometry x="550" y="130" width="20" height="20" as="geometry" />
        </mxCell>
        <mxCell id="rcTg-8w3tk0E2nQA5H5g-39" value="" style="endArrow=none;html=1;rounded=0;exitX=0.42;exitY=0.82;exitDx=0;exitDy=0;exitPerimeter=0;" edge="1" parent="1" source="rcTg-8w3tk0E2nQA5H5g-37" target="rcTg-8w3tk0E2nQA5H5g-38">
          <mxGeometry width="50" height="50" relative="1" as="geometry">
            <mxPoint x="680" y="210" as="sourcePoint" />
            <mxPoint x="730" y="160" as="targetPoint" />
          </mxGeometry>
        </mxCell>
        <mxCell id="rcTg-8w3tk0E2nQA5H5g-40" value="" style="endArrow=none;html=1;rounded=0;entryX=1;entryY=0.5;entryDx=0;entryDy=0;exitDx=0;exitDy=0;" edge="1" parent="1" source="rcTg-8w3tk0E2nQA5H5g-47" target="rcTg-8w3tk0E2nQA5H5g-22">
          <mxGeometry width="50" height="50" relative="1" as="geometry">
            <mxPoint x="380" y="300" as="sourcePoint" />
            <mxPoint x="430" y="250" as="targetPoint" />
          </mxGeometry>
        </mxCell>
        <mxCell id="rcTg-8w3tk0E2nQA5H5g-41" value="" style="endArrow=none;html=1;rounded=0;entryX=0.5;entryY=0;entryDx=0;entryDy=0;exitDx=0;exitDy=0;" edge="1" parent="1" source="rcTg-8w3tk0E2nQA5H5g-44" target="rcTg-8w3tk0E2nQA5H5g-22">
          <mxGeometry width="50" height="50" relative="1" as="geometry">
            <mxPoint x="380" y="300" as="sourcePoint" />
            <mxPoint x="430" y="250" as="targetPoint" />
          </mxGeometry>
        </mxCell>
        <mxCell id="rcTg-8w3tk0E2nQA5H5g-43" value="" style="endArrow=none;html=1;rounded=0;entryDx=0;entryDy=0;exitDx=0;exitDy=0;" edge="1" parent="1" source="rcTg-8w3tk0E2nQA5H5g-50" target="rcTg-8w3tk0E2nQA5H5g-42">
          <mxGeometry width="50" height="50" relative="1" as="geometry">
            <mxPoint x="675" y="440" as="sourcePoint" />
            <mxPoint x="675" y="100" as="targetPoint" />
          </mxGeometry>
        </mxCell>
        <mxCell id="rcTg-8w3tk0E2nQA5H5g-42" value="" style="shape=waypoint;sketch=0;fillStyle=solid;size=6;pointerEvents=1;points=[];fillColor=none;resizable=0;rotatable=0;perimeter=centerPerimeter;snapToPoint=1;" vertex="1" parent="1">
          <mxGeometry x="665" y="260" width="20" height="20" as="geometry" />
        </mxCell>
        <mxCell id="rcTg-8w3tk0E2nQA5H5g-45" value="" style="endArrow=none;html=1;rounded=0;entryDx=0;entryDy=0;exitDx=0;exitDy=0;" edge="1" parent="1" source="rcTg-8w3tk0E2nQA5H5g-54" target="rcTg-8w3tk0E2nQA5H5g-44">
          <mxGeometry width="50" height="50" relative="1" as="geometry">
            <mxPoint x="675" y="270" as="sourcePoint" />
            <mxPoint x="675" y="100" as="targetPoint" />
          </mxGeometry>
        </mxCell>
        <mxCell id="rcTg-8w3tk0E2nQA5H5g-44" value="" style="shape=waypoint;sketch=0;fillStyle=solid;size=6;pointerEvents=1;points=[];fillColor=none;resizable=0;rotatable=0;perimeter=centerPerimeter;snapToPoint=1;" vertex="1" parent="1">
          <mxGeometry x="665" y="200" width="20" height="20" as="geometry" />
        </mxCell>
        <mxCell id="rcTg-8w3tk0E2nQA5H5g-46" value="" style="endArrow=none;html=1;rounded=0;entryDx=0;entryDy=0;exitDx=0;exitDy=0;" edge="1" parent="1" source="rcTg-8w3tk0E2nQA5H5g-52" target="rcTg-8w3tk0E2nQA5H5g-47">
          <mxGeometry width="50" height="50" relative="1" as="geometry">
            <mxPoint x="490" y="270" as="sourcePoint" />
            <mxPoint x="860" y="270" as="targetPoint" />
          </mxGeometry>
        </mxCell>
        <mxCell id="rcTg-8w3tk0E2nQA5H5g-47" value="" style="shape=waypoint;sketch=0;fillStyle=solid;size=6;pointerEvents=1;points=[];fillColor=none;resizable=0;rotatable=0;perimeter=centerPerimeter;snapToPoint=1;" vertex="1" parent="1">
          <mxGeometry x="730" y="260" width="20" height="20" as="geometry" />
        </mxCell>
        <mxCell id="rcTg-8w3tk0E2nQA5H5g-51" value="" style="endArrow=none;html=1;rounded=0;entryDx=0;entryDy=0;exitX=0.5;exitY=1;exitDx=0;exitDy=0;" edge="1" parent="1" source="rcTg-8w3tk0E2nQA5H5g-22" target="rcTg-8w3tk0E2nQA5H5g-50">
          <mxGeometry width="50" height="50" relative="1" as="geometry">
            <mxPoint x="675" y="440" as="sourcePoint" />
            <mxPoint x="675" y="270" as="targetPoint" />
          </mxGeometry>
        </mxCell>
        <mxCell id="rcTg-8w3tk0E2nQA5H5g-50" value="" style="shape=waypoint;sketch=0;fillStyle=solid;size=6;pointerEvents=1;points=[];fillColor=none;resizable=0;rotatable=0;perimeter=centerPerimeter;snapToPoint=1;" vertex="1" parent="1">
          <mxGeometry x="665" y="320" width="20" height="20" as="geometry" />
        </mxCell>
        <mxCell id="rcTg-8w3tk0E2nQA5H5g-53" value="" style="endArrow=none;html=1;rounded=0;entryDx=0;entryDy=0;exitX=0;exitY=0.5;exitDx=0;exitDy=0;" edge="1" parent="1" source="rcTg-8w3tk0E2nQA5H5g-22" target="rcTg-8w3tk0E2nQA5H5g-52">
          <mxGeometry width="50" height="50" relative="1" as="geometry">
            <mxPoint x="490" y="270" as="sourcePoint" />
            <mxPoint x="740" y="270" as="targetPoint" />
          </mxGeometry>
        </mxCell>
        <mxCell id="rcTg-8w3tk0E2nQA5H5g-52" value="" style="shape=waypoint;sketch=0;fillStyle=solid;size=6;pointerEvents=1;points=[];fillColor=none;resizable=0;rotatable=0;perimeter=centerPerimeter;snapToPoint=1;" vertex="1" parent="1">
          <mxGeometry x="600" y="260" width="20" height="20" as="geometry" />
        </mxCell>
        <mxCell id="rcTg-8w3tk0E2nQA5H5g-54" value="" style="shape=singleArrow;direction=north;whiteSpace=wrap;html=1;" vertex="1" parent="1">
          <mxGeometry x="665" y="220" width="20" height="40" as="geometry" />
        </mxCell>
        <mxCell id="rcTg-8w3tk0E2nQA5H5g-56" value="" style="endArrow=none;html=1;rounded=0;entryDx=0;entryDy=0;exitDx=0;exitDy=0;" edge="1" parent="1" source="rcTg-8w3tk0E2nQA5H5g-67" target="rcTg-8w3tk0E2nQA5H5g-54">
          <mxGeometry width="50" height="50" relative="1" as="geometry">
            <mxPoint x="675" y="270" as="sourcePoint" />
            <mxPoint x="675" y="210" as="targetPoint" />
          </mxGeometry>
        </mxCell>
        <mxCell id="rcTg-8w3tk0E2nQA5H5g-57" value="" style="shape=singleArrow;direction=north;whiteSpace=wrap;html=1;rotation=135;" vertex="1" parent="1">
          <mxGeometry x="703.54" y="218.54" width="20" height="50" as="geometry" />
        </mxCell>
        <mxCell id="rcTg-8w3tk0E2nQA5H5g-60" value="" style="shape=singleArrow;direction=north;whiteSpace=wrap;html=1;rotation=-142;" vertex="1" parent="1">
          <mxGeometry x="696.92" y="278.94" width="20" height="50" as="geometry" />
        </mxCell>
        <mxCell id="rcTg-8w3tk0E2nQA5H5g-65" value="" style="shape=singleArrow;direction=north;whiteSpace=wrap;html=1;rotation=-60;" vertex="1" parent="1">
          <mxGeometry x="634.33" y="277.5" width="20" height="50" as="geometry" />
        </mxCell>
        <mxCell id="rcTg-8w3tk0E2nQA5H5g-66" value="" style="shape=singleArrow;direction=north;whiteSpace=wrap;html=1;rotation=55;" vertex="1" parent="1">
          <mxGeometry x="624.1" y="212.13" width="20" height="50" as="geometry" />
        </mxCell>
        <mxCell id="rcTg-8w3tk0E2nQA5H5g-68" value="" style="endArrow=none;html=1;rounded=0;entryDx=0;entryDy=0;exitDx=0;exitDy=0;" edge="1" parent="1" source="rcTg-8w3tk0E2nQA5H5g-42" target="rcTg-8w3tk0E2nQA5H5g-67">
          <mxGeometry width="50" height="50" relative="1" as="geometry">
            <mxPoint x="675" y="270" as="sourcePoint" />
            <mxPoint x="675" y="260" as="targetPoint" />
          </mxGeometry>
        </mxCell>
        <mxCell id="rcTg-8w3tk0E2nQA5H5g-70" value="" style="shape=waypoint;sketch=0;fillStyle=solid;size=6;pointerEvents=1;points=[];fillColor=none;resizable=0;rotatable=0;perimeter=centerPerimeter;snapToPoint=1;" vertex="1" parent="1">
          <mxGeometry x="730" y="200" width="20" height="20" as="geometry" />
        </mxCell>
        <mxCell id="rcTg-8w3tk0E2nQA5H5g-71" value="" style="shape=singleArrow;direction=north;whiteSpace=wrap;html=1;rotation=90;" vertex="1" parent="1">
          <mxGeometry x="700" y="190" width="20" height="40" as="geometry" />
        </mxCell>
        <mxCell id="rcTg-8w3tk0E2nQA5H5g-72" value="" style="shape=waypoint;sketch=0;fillStyle=solid;size=6;pointerEvents=1;points=[];fillColor=none;resizable=0;rotatable=0;perimeter=centerPerimeter;snapToPoint=1;" vertex="1" parent="1">
          <mxGeometry x="730" y="320" width="20" height="20" as="geometry" />
        </mxCell>
        <mxCell id="rcTg-8w3tk0E2nQA5H5g-76" value="" style="html=1;shadow=0;dashed=0;align=center;verticalAlign=middle;shape=mxgraph.arrows2.uTurnArrow;dy=4;arrowHead=25;dx2=30.58;rotation=-180;" vertex="1" parent="1">
          <mxGeometry x="750" y="205" width="100" height="140" as="geometry" />
        </mxCell>
        <mxCell id="rcTg-8w3tk0E2nQA5H5g-81" value="" style="shape=flexArrow;endArrow=classic;html=1;rounded=0;" edge="1" parent="1">
          <mxGeometry width="50" height="50" relative="1" as="geometry">
            <mxPoint x="680" y="495" as="sourcePoint" />
            <mxPoint x="680" y="585" as="targetPoint" />
          </mxGeometry>
        </mxCell>
        <mxCell id="rcTg-8w3tk0E2nQA5H5g-82" value="" style="shape=waypoint;sketch=0;fillStyle=solid;size=6;pointerEvents=1;points=[];fillColor=none;resizable=0;rotatable=0;perimeter=centerPerimeter;snapToPoint=1;" vertex="1" parent="1">
          <mxGeometry x="660" y="800" width="20" height="20" as="geometry" />
        </mxCell>
        <mxCell id="rcTg-8w3tk0E2nQA5H5g-83" value="" style="shape=waypoint;sketch=0;fillStyle=solid;size=6;pointerEvents=1;points=[];fillColor=none;resizable=0;rotatable=0;perimeter=centerPerimeter;snapToPoint=1;" vertex="1" parent="1">
          <mxGeometry x="660" y="720" width="20" height="20" as="geometry" />
        </mxCell>
        <mxCell id="rcTg-8w3tk0E2nQA5H5g-84" value="" style="shape=waypoint;sketch=0;fillStyle=solid;size=6;pointerEvents=1;points=[];fillColor=none;resizable=0;rotatable=0;perimeter=centerPerimeter;snapToPoint=1;" vertex="1" parent="1">
          <mxGeometry x="730" y="800" width="20" height="20" as="geometry" />
        </mxCell>
        <mxCell id="rcTg-8w3tk0E2nQA5H5g-85" value="" style="shape=waypoint;sketch=0;fillStyle=solid;size=6;pointerEvents=1;points=[];fillColor=none;resizable=0;rotatable=0;perimeter=centerPerimeter;snapToPoint=1;" vertex="1" parent="1">
          <mxGeometry x="660" y="870" width="20" height="20" as="geometry" />
        </mxCell>
        <mxCell id="rcTg-8w3tk0E2nQA5H5g-86" value="" style="endArrow=none;html=1;rounded=0;exitX=0.5;exitY=0.9;exitDx=0;exitDy=0;exitPerimeter=0;" edge="1" parent="1" source="rcTg-8w3tk0E2nQA5H5g-82">
          <mxGeometry width="50" height="50" relative="1" as="geometry">
            <mxPoint x="620" y="660" as="sourcePoint" />
            <mxPoint x="670" y="730" as="targetPoint" />
          </mxGeometry>
        </mxCell>
        <mxCell id="rcTg-8w3tk0E2nQA5H5g-87" value="" style="endArrow=none;html=1;rounded=0;exitX=0.75;exitY=0.9;exitDx=0;exitDy=0;exitPerimeter=0;entryX=0.5;entryY=0.05;entryDx=0;entryDy=0;entryPerimeter=0;" edge="1" parent="1" source="rcTg-8w3tk0E2nQA5H5g-84" target="rcTg-8w3tk0E2nQA5H5g-83">
          <mxGeometry width="50" height="50" relative="1" as="geometry">
            <mxPoint x="620" y="660" as="sourcePoint" />
            <mxPoint x="670" y="740" as="targetPoint" />
          </mxGeometry>
        </mxCell>
        <mxCell id="rcTg-8w3tk0E2nQA5H5g-89" value="" style="endArrow=none;html=1;rounded=0;entryX=0.55;entryY=0.8;entryDx=0;entryDy=0;entryPerimeter=0;exitX=0.9;exitY=0.35;exitDx=0;exitDy=0;exitPerimeter=0;" edge="1" parent="1" source="rcTg-8w3tk0E2nQA5H5g-85" target="rcTg-8w3tk0E2nQA5H5g-82">
          <mxGeometry width="50" height="50" relative="1" as="geometry">
            <mxPoint x="574.1" y="825" as="sourcePoint" />
            <mxPoint x="624.1" y="775" as="targetPoint" />
          </mxGeometry>
        </mxCell>
      </root>
    </mxGraphModel>
  </diagram>
</mxfile>
